<svg xmlns="http://www.w3.org/2000/svg" version="1.1" xmlns:xlink="http://www.w3.org/1999/xlink" width="512" height="512"><svg xmlns="http://www.w3.org/2000/svg" width="512" height="512" viewBox="0 0 5120 5120" preserveAspectRatio="xMidYMid meet">

  <g transform="translate(2560,2560) scale(1,-1) translate(-2560,-2560)" fill="#000000" stroke="none">
    <path d="M2410 4229 c-503 -24 -943 -167 -1173 -379 -82 -76 -127 -142 -158
    -231 -50 -147 -11 -329 70 -329 35 0 57 16 172 124 115 108 237 187 362 234
    98 36 261 72 331 72 l44 0 -69 -172 c-61 -156 -194 -545 -234 -688 l-15 -56
    -67 -18 c-234 -62 -437 -188 -497 -308 -30 -60 -33 -90 -9 -113 15 -15 31 -16
    132 -10 64 3 163 12 221 19 58 7 106 13 107 12 1 -1 -9 -46 -23 -101 -128
    -502 -179 -887 -157 -1164 19 -225 34 -243 197 -242 224 2 371 55 426 153 21
    37 25 61 31 198 14 296 63 588 170 1022 50 197 53 206 78 212 14 3 177 -2 361
    -10 184 -9 365 -14 402 -12 101 5 118 26 174 216 40 136 43 191 14 217 -19 17
    -54 19 -431 26 -226 4 -412 8 -414 10 -2 2 20 83 49 179 51 169 124 454 146
    573 l11 57 553 0 c477 0 560 2 607 16 77 23 124 76 170 189 20 50 47 114 60
    142 27 61 21 93 -22 126 -28 20 -15 20 -1234 40 -132 2 -305 0 -385 -4z"></path>
  </g>
</svg><style>@media (prefers-color-scheme: light) { :root { filter: none; } }
@media (prefers-color-scheme: dark) { :root { filter: invert(100%); } }
</style></svg>